<?xml version="1.0" encoding="utf-8"?>
<!-- Generator: Adobe Illustrator 18.1.1, SVG Export Plug-In . SVG Version: 6.00 Build 0)  -->
<svg version="1.0" id="Seected" xmlns="http://www.w3.org/2000/svg" xmlns:xlink="http://www.w3.org/1999/xlink" x="0px" y="0px"
	 viewBox="0 0 120 120" enable-background="new 0 0 120 120" xml:space="preserve">
<g>
	<path fill="#6B6B6B" d="M59.9,53.9c-1.7,0-3.1,1.1-3.1,2.4v31.2c0,1.4,1.4,2.4,3.1,2.4s3.1-1.1,3.1-2.4V56.3
		C62.9,55,61.6,53.9,59.9,53.9z"/>
	<path fill="#6B6B6B" d="M59.9,38c-2,0-3.7,1.7-3.7,3.7v0.7c0,2,1.7,3.7,3.7,3.7s3.7-1.7,3.7-3.7v-0.7C63.5,39.6,61.9,38,59.9,38z"
		/>
	<path fill="#6B6B6B" d="M58.5,19.1c-23.7,0-42.9,19.3-42.9,42.9s19.3,42.9,42.9,42.9s42.9-19.3,42.9-42.9S82.1,19.1,58.5,19.1z
		 M58.5,99.9c-20.9,0-37.9-17-37.9-37.9s17-37.9,37.9-37.9s37.9,17,37.9,37.9S79.4,99.9,58.5,99.9z"/>
</g>
</svg>
