<?xml version="1.0" encoding="utf-8"?>
<!-- Generator: Adobe Illustrator 18.1.1, SVG Export Plug-In . SVG Version: 6.00 Build 0)  -->
<svg version="1.1" id="Seected" xmlns="http://www.w3.org/2000/svg" xmlns:xlink="http://www.w3.org/1999/xlink" x="0px" y="0px"
	 viewBox="0 0 120 120" enable-background="new 0 0 120 120" xml:space="preserve">
<g>
	<path fill="#6B6B6B" d="M102.8,59.6c-7.1-8.5-14.7-14.9-23.2-19.5c-6-3.2-11.9-4.9-17.9-5.2c-6.4-0.3-12.6,1-19.1,4.2
		c-9.2,4.4-17.4,11.1-25.2,20.3c-1.3,1.6-1.3,2.6,0.2,4.1c6.5,6.9,13.8,12.3,21.5,16.2c7.1,3.5,13.9,5.3,20.8,5.3l0.2,0
		c4.1,0,8.8-0.8,12.9-2.1c10.7-3.5,20.4-10,29.7-19.7C103.8,62.1,103.8,60.9,102.8,59.6z M97.9,61.3c-7.7,7.7-15.6,13.1-24.2,16.4
		c-4.6,1.7-9.2,2.6-13.7,2.6c0,0,0,0,0,0c-0.7,0-1.4,0-2-0.1c-5.5-0.3-11-1.9-16.6-4.7c-7-3.4-13.3-8.1-19.3-14.3
		c6.5-7.5,13.3-13.1,20.8-17c6.4-3.3,12.3-4.8,18.4-4.6c5.3,0.2,10.5,1.7,15.9,4.6C84.6,48.3,91.4,53.8,97.9,61.3z"/>
	<path fill="#6B6B6B" d="M60,47.1L60,47.1L60,47.1c-3.4,0-6.6,1.4-9.1,3.8c-2.5,2.5-3.8,5.7-3.8,9.1c0,7,5.9,12.9,12.9,12.9
		c3.4,0,6.6-1.4,9.1-3.8c2.5-2.5,3.8-5.7,3.8-9.1C72.9,53,67,47.1,60,47.1z M67,60.1c0,3.9-3,6.9-7,6.9l0,0c-3.9,0-6.9-3-6.9-7
		c0-3.9,3-6.9,7-6.9c1.9,0,3.7,0.7,5,2C66.3,56.3,67,58.1,67,60.1z"/>
</g>
</svg>
