<?xml version="1.0" encoding="utf-8"?>
<!-- Generator: Adobe Illustrator 18.1.1, SVG Export Plug-In . SVG Version: 6.00 Build 0)  -->
<svg version="1.0" id="Seected" xmlns="http://www.w3.org/2000/svg" xmlns:xlink="http://www.w3.org/1999/xlink" x="0px" y="0px"
	 viewBox="0 0 24 24" enable-background="new 0 0 24 24" xml:space="preserve">
<g>
	<g>
		<g>
			<path fill="#6B6B6B" stroke="#6B6B6B" stroke-width="0.5" stroke-miterlimit="10" d="M7.4,11.7c0-0.1,0-0.1,0.1-0.2
				c0.1-0.1,0.3-0.2,0.4-0.1l4.1,2.9l4.1-2.9c0.1-0.1,0.3-0.1,0.4,0.1c0.1,0.1,0.1,0.3-0.1,0.4L12.2,15c-0.1,0.1-0.3,0.1-0.4,0
				L7.6,12C7.5,11.9,7.4,11.8,7.4,11.7L7.4,11.7z"/>
		</g>
		<g>
			<path fill="#6B6B6B" stroke="#6B6B6B" stroke-width="0.5" stroke-miterlimit="10" d="M11.7,14.8V5.3C11.7,5.1,11.8,5,12,5
				c0.2,0,0.3,0.1,0.3,0.3v9.5c0,0.2-0.1,0.3-0.3,0.3C11.8,15.1,11.7,15,11.7,14.8L11.7,14.8z"/>
		</g>
	</g>
	<g>
		<path fill="#6B6B6B" stroke="#6B6B6B" stroke-width="0.5" stroke-miterlimit="10" d="M19.2,18.7c0,0.2-0.1,0.3-0.3,0.3H5.2
			c-0.2,0-0.3-0.1-0.3-0.3c0-0.2,0.1-0.3,0.3-0.3h13.7C19,18.4,19.2,18.5,19.2,18.7L19.2,18.7z"/>
	</g>
	<g>
		<g>
			<path fill="#6B6B6B" stroke="#6B6B6B" stroke-width="0.5" stroke-miterlimit="10" d="M19.2,15.1v3.6c0,0.2-0.1,0.3-0.3,0.3
				s-0.3-0.1-0.3-0.3v-3.6c0-0.2,0.1-0.3,0.3-0.3S19.2,14.9,19.2,15.1L19.2,15.1z"/>
		</g>
		<g>
			<path fill="#6B6B6B" stroke="#6B6B6B" stroke-width="0.5" stroke-miterlimit="10" d="M5.5,15.1v3.6c0,0.2-0.1,0.3-0.3,0.3
				c-0.2,0-0.3-0.1-0.3-0.3v-3.6c0-0.2,0.1-0.3,0.3-0.3C5.3,14.8,5.5,14.9,5.5,15.1L5.5,15.1z"/>
		</g>
	</g>
</g>
</svg>
