<?xml version="1.0" encoding="utf-8"?>
<!-- Generator: Adobe Illustrator 18.1.1, SVG Export Plug-In . SVG Version: 6.00 Build 0)  -->
<svg version="1.1" id="Seected" xmlns="http://www.w3.org/2000/svg" xmlns:xlink="http://www.w3.org/1999/xlink" x="0px" y="0px"
	 viewBox="0 0 24 24" enable-background="new 0 0 24 24" xml:space="preserve">
<g>
	<path fill="#3497DB" d="M4,4.3c3.5,0,7.1,0,10.6,0c0,2.1,0,4.2,0,6.3c1.8,0,3.6,0,5.5,0c0,0.1,0,0.2,0,0.3c0,2.2,0,4.5,0,6.7
		c0,1.2-0.9,2.1-2.1,2.1c-4.6,0-9.1,0-13.7,0c-0.1,0-0.2,0-0.3,0C4,14.6,4,9.4,4,4.3z M4.9,5.2c0,4.5,0,9,0,13.5c2.9,0,5.8,0,8.6,0
		c0-4.5,0-9,0-13.5C10.7,5.2,7.8,5.2,4.9,5.2z M14.6,18.8c0.1,0,0.2,0,0.3,0c1,0,2.1,0,3.1,0c0.7,0,1.1-0.4,1.1-1.1
		c0-1.9,0-3.9,0-5.8c0-0.1,0-0.2,0-0.3c-1.5,0-3,0-4.5,0C14.6,14,14.6,16.3,14.6,18.8z"/>
	<path fill="#3497DB" d="M11.2,16.8c-0.3,0-0.6,0-1,0c0-0.6,0-1.2,0-1.8c0.3,0,0.6,0,1,0C11.2,15.6,11.2,16.2,11.2,16.8z"/>
	<path fill="#3497DB" d="M11.2,9.5c-0.3,0-0.6,0-0.9,0c0-0.6,0-1.2,0-1.8c0.3,0,0.6,0,0.9,0C11.2,8.3,11.2,8.9,11.2,9.5z"/>
	<path fill="#3497DB" d="M8.2,7.7c0,0.6,0,1.2,0,1.8c-0.3,0-0.6,0-0.9,0c0,0-0.1-0.1-0.1-0.2c0-0.5,0-1,0-1.5c0-0.1,0.1-0.2,0.1-0.2
		C7.7,7.7,7.9,7.7,8.2,7.7z"/>
	<path fill="#3497DB" d="M7.3,15c0.3,0,0.6,0,1,0c0,0.6,0,1.2,0,1.8c-0.3,0-0.6,0-1,0C7.3,16.2,7.3,15.6,7.3,15z"/>
	<path fill="#3497DB" d="M8.2,11.4c0,0.6,0,1.2,0,1.8c-0.3,0-0.6,0-1,0c0-0.6,0-1.2,0-1.8C7.6,11.4,7.9,11.4,8.2,11.4z"/>
	<path fill="#3497DB" d="M11.2,11.4c0,0.6,0,1.2,0,1.8c-0.3,0-0.6,0-1,0c0-0.6,0-1.2,0-1.8C10.6,11.4,10.9,11.4,11.2,11.4z"/>
	<path fill="#3497DB" d="M17.8,15.9c0,0.3,0,0.6,0,1c-0.6,0-1.2,0-1.9,0c0-0.3,0-0.6,0-1C16.5,15.9,17.2,15.9,17.8,15.9z"/>
	<path fill="#3497DB" d="M17.8,13.5c0,0.3,0,0.6,0,1c-0.6,0-1.3,0-1.9,0c0-0.3,0-0.6,0-1C16.5,13.5,17.2,13.5,17.8,13.5z"/>
</g>
</svg>
